<?xml version="1.0" encoding="UTF-8" standalone="no"?>
<!-- Created with Inkscape (http://www.inkscape.org/) -->

<svg
   width="350"
   height="350"
   viewBox="0 0 92.604166 92.604166"
   version="1.1"
   id="svg5"
   sodipodi:docname="LinkedInLight.svg"
   inkscape:version="1.1 (c68e22c387, 2021-05-23)"
   xmlns:inkscape="http://www.inkscape.org/namespaces/inkscape"
   xmlns:sodipodi="http://sodipodi.sourceforge.net/DTD/sodipodi-0.dtd"
   xmlns="http://www.w3.org/2000/svg"
   xmlns:svg="http://www.w3.org/2000/svg">
  <sodipodi:namedview
     id="namedview7"
     pagecolor="#ffffff"
     bordercolor="#999999"
     borderopacity="1"
     inkscape:pageshadow="0"
     inkscape:pageopacity="0"
     inkscape:pagecheckerboard="0"
     inkscape:document-units="px"
     showgrid="false"
     fit-margin-top="0"
     fit-margin-left="0"
     fit-margin-right="0"
     fit-margin-bottom="0"
     showguides="true"
     inkscape:guide-bbox="true"
     units="px"
     inkscape:object-nodes="true"
     inkscape:zoom="1.1885714"
     inkscape:cx="144.71154"
     inkscape:cy="184.67548"
     inkscape:window-width="1920"
     inkscape:window-height="1017"
     inkscape:window-x="-8"
     inkscape:window-y="-8"
     inkscape:window-maximized="1"
     inkscape:current-layer="layer2" />
  <defs
     id="defs2">
    <rect
       x="43.884734"
       y="59.14899"
       width="263.30841"
       height="228.96383"
       id="rect9915" />
  </defs>
  <g
     inkscape:label="Layer 1"
     inkscape:groupmode="layer"
     id="layer1"
     style="display:inline;opacity:1"
     transform="translate(-39.266827,-50.332928)" />
  <g
     inkscape:groupmode="layer"
     id="layer2"
     inkscape:label="Layer 2"
     transform="translate(-39.266827,-50.332928)"
     style="display:inline;opacity:1">
    <path
       id="path155"
       style="fill:#f9f9f9;stroke-width:0.960801"
       d="M 175 0 A 175 175 0 0 0 0 175 A 175 175 0 0 0 175 350 A 175 175 0 0 0 350 175 A 175 175 0 0 0 175 0 z M 93.494141 59.148438 A 37.206624 37.206624 0 0 1 130.69922 96.355469 A 37.206624 37.206624 0 0 1 93.494141 133.5625 A 37.206624 37.206624 0 0 1 56.287109 96.355469 A 37.206624 37.206624 0 0 1 93.494141 59.148438 z M 146.64844 130.88281 L 171.33789 130.88281 L 196.02734 130.88281 L 196.02734 136.32227 L 196.02734 141.76172 L 199.74414 141.36719 C 218.25961 139.41048 224.0273 139.05797 238.26562 139.00977 C 259.61916 138.93747 269.37372 140.29816 278.87109 144.67578 C 287.7772 148.78088 291.39897 156.33682 293.64648 175.50195 C 294.57615 183.42948 294.59128 210.16858 293.67383 223.39258 C 291.946 248.29801 287.74427 283.5221 285.7793 289.57812 L 284.57227 293.29688 L 265.23438 293.29688 L 245.89453 293.29688 L 246.21484 291.06445 C 247.58613 281.51152 248.31198 255.40132 247.72266 236.7793 C 247.20758 220.50319 246.04139 205.81221 244.20312 192.45703 C 243.06936 184.21998 243.032 184.10855 240.9375 182.26367 C 237.10862 178.89111 227.67393 176.71572 216.84961 176.71289 C 211.49405 176.71189 202.17757 177.46991 197.96289 178.25 L 196.0332 178.60742 L 195.88086 235.80273 L 195.72852 292.99805 L 171.18945 293.1543 L 146.64844 293.30859 L 146.64844 212.0957 L 146.64844 130.88281 z M 62.964844 144.83594 L 123.98242 144.83594 L 123.98242 292.88281 L 62.964844 292.88281 L 62.964844 144.83594 z "
       transform="matrix(0.26458333,0,0,0.26458333,39.266827,50.332928)" />
    <text
       xml:space="preserve"
       transform="matrix(0.26458333,0,0,0.26458333,39.266827,50.332928)"
       id="text9913"
       style="font-style:normal;font-weight:normal;font-size:40px;line-height:1.25;font-family:sans-serif;white-space:pre;shape-inside:url(#rect9915);fill:#000000;fill-opacity:1;stroke:none" />
    <path
       style="fill:none;stroke-width:0.420673"
       d="m 62.890625,218.96034 v -74.2543 l 30.603966,0.10792 30.603969,0.10791 v 74.03847 74.03846 l -30.603969,0.10791 -30.603966,0.10792 z"
       id="path4391"
       transform="matrix(0.26458333,0,0,0.26458333,39.266827,50.332928)" />
    <path
       style="fill:none;stroke-width:0.420673"
       d="M 87.18026,133.13775 C 78.518933,131.4937 72.016657,127.90508 65.951817,121.42175 54.577766,109.26285 53.0176,90.095645 62.248847,75.929391 c 2.446927,-3.755049 8.310145,-9.346893 12.21953,-11.653958 14.668122,-8.656172 33.389313,-6.283082 45.431243,5.758844 6.10586,6.10586 9.89802,14.145384 10.63511,22.546825 1.4071,16.038398 -6.47366,30.212918 -20.68753,37.209028 -2.11067,1.03888 -5.35201,2.27139 -7.20297,2.73892 -4.502913,1.13738 -11.274508,1.40393 -15.46397,0.6087 z"
       id="path4430"
       transform="matrix(0.26458333,0,0,0.26458333,39.266827,50.332928)" />
    <path
       style="fill:none;stroke-width:0.420673"
       d="m 146.88502,292.92868 c -0.15425,-0.15424 -0.28045,-36.6897 -0.28045,-81.1899 v -80.90945 h 24.60937 24.60938 v 5.46875 c 0,6.38277 -0.81046,5.79732 6.73077,4.86203 12.44579,-1.54356 21.76979,-2.07822 36.59855,-2.09865 12.12163,-0.0167 16.04175,0.1241 20.81687,0.74766 11.60268,1.51512 20.07724,4.43627 24.50875,8.44807 10.79081,9.76881 12.8712,46.12724 6.16373,107.72238 -1.66405,15.2811 -3.87183,30.42719 -4.93623,33.86418 l -0.97709,3.15505 -19.2731,0.10945 -19.2731,0.10945 0.26284,-2.84383 c 1.1692,-12.65017 1.3222,-17.12938 1.32572,-38.81137 0.004,-23.77351 -0.18451,-28.24374 -1.91451,-45.43269 -0.83159,-8.26245 -2.35575,-20.23069 -2.74021,-21.51699 -0.72835,-2.43692 -6.21205,-5.32569 -12.7978,-6.74178 -5.99309,-1.28865 -20.45082,-1.38061 -28.92127,-0.18394 l -5.57392,0.78746 v 57.36729 57.36728 h -24.32893 c -13.38091,0 -24.45513,-0.1262 -24.60937,-0.28045 z"
       id="path4469"
       transform="matrix(0.26458333,0,0,0.26458333,39.266827,50.332928)" />
    <path
       style="fill:none;stroke-width:0.594922"
       d="m 62.764226,218.93114 v -74.3652 h 30.638461 30.638463 v 74.3652 74.36519 H 93.402687 62.764226 Z"
       id="path4662"
       transform="matrix(0.26458333,0,0,0.26458333,39.266827,50.332928)" />
    <path
       style="fill:none;stroke-width:0.594922"
       d="M 85.668706,132.92079 C 71.758052,129.84525 60.681172,118.9231 57.061945,104.71363 55.640894,99.13444 56.141788,89.730281 58.147362,84.335159 63.603131,69.658794 76.254923,60.00701 91.235576,59.092863 110.9491,57.889907 128.41178,72.596161 130.50233,92.161484 c 0.95934,8.978416 -1.08153,17.472646 -5.94524,24.744506 -4.91114,7.34276 -12.02009,12.68268 -20.32554,15.26763 -5.047795,1.57106 -13.328848,1.90437 -18.562844,0.74717 z"
       id="path4701"
       transform="matrix(0.26458333,0,0,0.26458333,39.266827,50.332928)" />
    <path
       style="fill:none;stroke-width:0.594922"
       d="m 146.64817,212.09614 v -81.21339 h 24.68924 24.68925 v 5.43904 5.43904 l 3.71826,-0.39294 c 18.51547,-1.95671 24.28283,-2.30974 38.52117,-2.35794 21.35354,-0.0723 31.10728,1.28889 40.60465,5.66651 8.90611,4.1051 12.52738,11.66027 14.77489,30.8254 0.92967,7.92753 0.94515,34.66719 0.0277,47.89119 -1.72783,24.90543 -5.92897,60.12898 -7.89394,66.18502 l -1.20645,3.71826 H 265.2342 245.89546 l 0.32025,-2.23095 c 1.37129,-9.55293 2.096,-35.66457 1.50668,-54.28659 -0.51508,-16.27611 -1.68181,-30.96648 -3.52008,-44.32166 -1.13378,-8.23705 -1.16978,-8.34948 -3.26428,-10.19436 -3.82888,-3.37256 -13.26482,-5.54614 -24.08914,-5.54897 -5.35556,-0.001 -14.67111,0.75657 -18.88579,1.53666 l -1.93054,0.35732 -0.15169,57.19555 -0.15169,57.19554 -24.54052,0.15533 -24.54051,0.15534 z"
       id="path4740"
       transform="matrix(0.26458333,0,0,0.26458333,39.266827,50.332928)" />
    <path
       style="fill:none;stroke-width:0.594922"
       d="m 226.21893,359.48459 -5.20557,-0.19829 v -1.70785 c 0,-1.65015 -0.13566,-1.72895 -4.01572,-2.33247 -2.20864,-0.34354 -5.48815,-0.80111 -7.28779,-1.01683 -4.4525,-0.53369 -7.49196,-1.83653 -9.11108,-3.90538 l -1.35545,-1.73195 -5.92152,0.69146 c -7.65754,0.89417 -28.62764,0.90307 -36.26251,0.0154 -35.75365,-4.157 -66.804298,-17.22119 -93.880422,-39.49906 -7.233262,-5.95143 -20.40312,-19.45214 -25.964636,-26.6169 C 20.758218,261.98278 9.0143599,236.87149 3.6305445,211.37239 0.91481661,198.51001 0.09164338,190.04516 0.08442841,174.90694 0.07732791,160.00883 0.81539219,152.39196 3.5563726,139.07631 10.502024,105.33441 28.120662,73.424494 53.154859,49.246246 86.288323,17.245656 128.84228,0.00370386 174.69518,7.2146139e-4 193.97525,-5.3263328e-4 208.41362,2.0970743 226.16819,7.4787257 l 6.73021,2.0400194 h 41.01859 41.01859 l 0.18643,1.9334949 0.18642,1.933495 6.24668,0.820179 c 9.32802,1.224756 10.71966,1.679822 13.24391,4.330779 1.8209,1.91229 2.8318,2.446855 5.4255,2.868989 5.80875,0.945399 7.97498,1.770939 9.54593,3.637906 0.84191,1.000545 1.53074,2.02788 1.53074,2.282964 0,0.255085 1.75731,0.897451 3.90513,1.427479 5.4038,1.333521 6.87616,2.148887 8.54935,4.734475 0.84823,1.31076 2.08194,2.376095 2.97499,2.568942 3.17904,0.686488 4.91823,1.659807 6.37229,3.56618 0.82609,1.083067 3.48439,3.057216 5.90732,4.386996 2.42293,1.329781 4.87627,3.148481 5.45187,4.041555 1.33559,2.072227 2.93177,3.464975 5.33835,4.657955 1.05139,0.521193 2.07382,1.458664 2.27206,2.083269 0.48463,1.526917 3.19613,4.698754 4.01681,4.698754 0.80222,0 3.9954,2.98565 3.9954,3.735727 0,0.845241 2.31748,3.576716 3.93472,4.63761 1.46076,0.958246 5.56609,6.794789 5.60381,7.966945 0.0248,0.77131 2.09675,3.29213 2.70587,3.29213 1.15429,0 2.73769,2.274242 3.56517,5.12068 0.72125,2.48099 1.3394,3.380493 2.99405,4.35676 2.30274,1.358646 3.95824,4.474887 5.02853,9.465446 0.36202,1.688066 0.88321,3.069215 1.1582,3.069215 0.27499,0 1.29469,0.66869 2.26599,1.48599 1.72548,1.4519 2.86017,4.79435 3.94633,11.62466 0.23619,1.48524 0.83777,2.4018 2.04418,3.11444 2.52555,1.49189 3.43947,4.03717 4.53444,12.6286 0.54213,4.25369 1.16463,7.9121 1.38334,8.1298 0.2187,0.2177 1.06694,0.48541 1.88495,0.59492 l 1.48731,0.19911 v 44.91658 44.91657 l -1.48731,0.19911 c -0.81801,0.10951 -1.68985,0.39238 -1.93742,0.62859 -0.24756,0.23622 -0.82928,3.67552 -1.29272,7.64289 -0.92146,7.88845 -2.38796,12.12331 -4.59661,13.27376 -0.76699,0.39951 -1.45794,0.77583 -1.53543,0.83628 -0.0775,0.0604 -0.56628,2.35225 -1.08617,5.09291 -1.13272,5.97122 -2.14254,8.09453 -4.47631,9.41215 -1.22135,0.68956 -1.93592,1.71029 -2.35853,3.36898 -1.38057,5.41876 -2.57144,7.81665 -5.04018,10.14874 -1.62377,1.53388 -2.79037,3.28417 -3.19803,4.79812 -0.68508,2.54417 -2.50311,4.59499 -4.6502,5.24563 -0.92295,0.27968 -1.43915,1.04568 -1.72249,2.556 -0.2695,1.43654 -1.51793,3.38882 -3.73893,5.84689 -1.83389,2.02962 -4.27134,4.81343 -5.41656,6.18622 -3.10846,3.72614 -13.75679,14.29943 -14.40093,14.29943 -0.30824,0 -2.07993,1.43611 -3.93708,3.19135 -3.71144,3.50778 -5.35086,4.54263 -7.19653,4.54263 -0.82404,0 -1.49324,0.65164 -2.05849,2.00448 -0.97364,2.33026 -2.76542,3.73768 -5.80446,4.55934 -1.34365,0.36327 -2.76498,1.37288 -3.74901,2.66302 -1.89229,2.48091 -4.25322,3.80059 -8.65042,4.8353 -2.60318,0.61256 -3.65507,1.24272 -5.22074,3.12757 -2.12204,2.55466 -3.76383,3.27267 -9.5601,4.18097 -3.19948,0.50137 -4.0929,0.92982 -5.96817,2.86216 -2.54359,2.621 -4.8352,3.42446 -12.28118,4.30589 -8.45152,1.00047 -8.62636,1.06021 -8.62636,2.94715 v 1.64527 l -8.12551,0.38969 c -7.94051,0.38082 -67.96301,0.33998 -78.28685,-0.0533 z m 141.86371,-67.20138 c 1.24082,-1.21163 2.25604,-2.47053 2.25604,-2.79755 0,-0.32703 0.82105,-1.44171 1.82457,-2.47707 1.7093,-1.76356 1.86027,-2.29152 2.38969,-8.35723 1.76797,-20.2562 2.47423,-23.82456 5.31995,-26.87908 1.97306,-2.11783 2.51111,-11.22376 2.57326,-43.54973 0.0623,-32.41266 -0.21398,-36.07931 -2.87657,-38.17371 -1.97718,-1.55524 -3.80619,-5.17062 -4.24855,-8.39807 -0.40727,-2.97136 -1.06995,-3.95537 -3.50495,-5.20452 -0.97617,-0.50078 -2.30425,-1.89106 -2.95129,-3.0895 -1.15909,-2.14688 -3.00184,-3.43651 -4.91041,-3.43651 -1.52377,0 -5.61964,-2.16963 -7.71636,-4.08743 -1.34717,-1.23222 -2.7951,-1.86469 -4.94619,-2.16054 -1.67278,-0.23006 -3.19563,-0.2641 -3.38409,-0.0756 -0.18847,0.18847 0.12603,3.76316 0.69887,7.94378 2.57054,18.7598 1.54298,43.62638 -2.55676,61.87301 -0.3432,1.52748 -0.3182,2.77455 0.0695,3.46737 1.10332,1.97152 0.6499,13.80774 -0.70528,18.41069 -0.84663,2.87565 -1.42123,7.38646 -1.85667,14.57558 -1.45261,23.98239 -1.89039,26.6853 -4.83211,29.83442 -1.49492,1.60032 -1.94496,2.74431 -2.41558,6.14034 -0.40642,2.93274 -0.37925,4.8382 0.0914,6.40898 l 0.66973,2.23538 h 14.37789 14.37788 z M 124.04115,218.93114 v -73.77028 h -30.341003 -30.341 v 73.77028 73.77027 h 30.341 30.341003 z m 71.53634,16.50907 0.15171,-57.2612 4.75937,-0.74867 c 7.63134,-1.20045 24.06572,-1.14278 29.74608,0.10439 5.66737,1.24431 10.84855,3.64518 12.30327,5.70111 1.18968,1.68137 2.88073,13.35126 4.39662,30.341 1.81275,20.31691 1.73788,61.28824 -0.13942,76.2987 l -0.35342,2.82587 h 19.00549 19.00549 l 0.97362,-3.12334 c 1.80665,-5.79565 5.96673,-40.25336 7.6673,-63.50787 1.0232,-13.99158 1.02769,-44.29972 0.008,-52.31039 -0.99677,-7.82877 -3.11449,-16.23477 -5.05453,-20.06326 -4.8224,-9.51653 -16.91318,-13.60065 -42.34423,-14.30336 -12.79502,-0.35355 -28.29104,0.36902 -41.64451,1.94185 -3.92648,0.46248 -7.4737,0.8432 -7.88271,0.84605 -0.54309,0.004 -0.74365,-1.51904 -0.74365,-5.64659 v -5.65175 h -24.09432 -24.09433 v 80.90933 80.90933 h 24.09135 24.09135 l 0.15171,-57.2612 z M 102.02905,132.33616 c 13.55697,-3.18571 24.78517,-14.76219 27.66424,-28.52235 3.96409,-18.945904 -8.08391,-38.35224 -26.7785,-43.133511 -9.064627,-2.318338 -18.203943,-1.287345 -26.399523,2.978088 -5.911522,3.076684 -10.03227,6.748267 -13.658162,12.16943 -13.762622,20.576832 -3.910354,48.306413 19.836993,55.831983 1.636035,0.51846 3.643895,1.0547 4.461912,1.19163 3.536577,0.59201 11.306461,0.32282 14.87304,-0.51527 z"
       id="path4927"
       transform="matrix(0.26458333,0,0,0.26458333,39.266827,50.332928)" />
    <path
       style="fill:none;stroke-width:0.594922"
       d="m 226.21893,359.48459 -5.20557,-0.19829 v -1.70785 c 0,-1.65015 -0.13566,-1.72895 -4.01572,-2.33247 -2.20864,-0.34354 -5.48815,-0.80111 -7.28779,-1.01683 -4.4525,-0.53369 -7.49196,-1.83653 -9.11108,-3.90538 l -1.35545,-1.73195 -5.92152,0.69146 c -7.65754,0.89417 -28.62764,0.90307 -36.26251,0.0154 -35.75365,-4.157 -66.804298,-17.22119 -93.880422,-39.49906 -7.233262,-5.95143 -20.40312,-19.45214 -25.964636,-26.6169 C 20.758218,261.98278 9.0143599,236.87149 3.6305445,211.37239 0.91481661,198.51001 0.09164338,190.04516 0.08442841,174.90694 0.07732791,160.00883 0.81539219,152.39196 3.5563726,139.07631 10.502024,105.33441 28.120662,73.424494 53.154859,49.246246 86.288323,17.245656 128.84228,0.00370386 174.69518,7.2146139e-4 193.97525,-5.3263328e-4 208.41362,2.0970743 226.16819,7.4787257 l 6.73021,2.0400194 h 41.01859 41.01859 l 0.18643,1.9334949 0.18642,1.933495 6.24668,0.820179 c 9.32802,1.224756 10.71966,1.679822 13.24391,4.330779 1.8209,1.91229 2.8318,2.446855 5.4255,2.868989 5.80875,0.945399 7.97498,1.770939 9.54593,3.637906 0.84191,1.000545 1.53074,2.02788 1.53074,2.282964 0,0.255085 1.75731,0.897451 3.90513,1.427479 5.4038,1.333521 6.87616,2.148887 8.54935,4.734475 0.84823,1.31076 2.08194,2.376095 2.97499,2.568942 3.17904,0.686488 4.91823,1.659807 6.37229,3.56618 0.82609,1.083067 3.48439,3.057216 5.90732,4.386996 2.42293,1.329781 4.87627,3.148481 5.45187,4.041555 1.33559,2.072227 2.93177,3.464975 5.33835,4.657955 1.05139,0.521193 2.07382,1.458664 2.27206,2.083269 0.48463,1.526917 3.19613,4.698754 4.01681,4.698754 0.80222,0 3.9954,2.98565 3.9954,3.735727 0,0.845241 2.31748,3.576716 3.93472,4.63761 1.46076,0.958246 5.56609,6.794789 5.60381,7.966945 0.0248,0.77131 2.09675,3.29213 2.70587,3.29213 1.15429,0 2.73769,2.274242 3.56517,5.12068 0.72125,2.48099 1.3394,3.380493 2.99405,4.35676 2.30274,1.358646 3.95824,4.474887 5.02853,9.465446 0.36202,1.688066 0.88321,3.069215 1.1582,3.069215 0.27499,0 1.29469,0.66869 2.26599,1.48599 1.72548,1.4519 2.86017,4.79435 3.94633,11.62466 0.23619,1.48524 0.83777,2.4018 2.04418,3.11444 2.52555,1.49189 3.43947,4.03717 4.53444,12.6286 0.54213,4.25369 1.16463,7.9121 1.38334,8.1298 0.2187,0.2177 1.06694,0.48541 1.88495,0.59492 l 1.48731,0.19911 v 44.91658 44.91657 l -1.48731,0.19911 c -0.81801,0.10951 -1.68985,0.39238 -1.93742,0.62859 -0.24756,0.23622 -0.82928,3.67552 -1.29272,7.64289 -0.92146,7.88845 -2.38796,12.12331 -4.59661,13.27376 -0.76699,0.39951 -1.45794,0.77583 -1.53543,0.83628 -0.0775,0.0604 -0.56628,2.35225 -1.08617,5.09291 -1.13272,5.97122 -2.14254,8.09453 -4.47631,9.41215 -1.22135,0.68956 -1.93592,1.71029 -2.35853,3.36898 -1.38057,5.41876 -2.57144,7.81665 -5.04018,10.14874 -1.62377,1.53388 -2.79037,3.28417 -3.19803,4.79812 -0.68508,2.54417 -2.50311,4.59499 -4.6502,5.24563 -0.92295,0.27968 -1.43915,1.04568 -1.72249,2.556 -0.2695,1.43654 -1.51793,3.38882 -3.73893,5.84689 -1.83389,2.02962 -4.27134,4.81343 -5.41656,6.18622 -3.10846,3.72614 -13.75679,14.29943 -14.40093,14.29943 -0.30824,0 -2.07993,1.43611 -3.93708,3.19135 -3.71144,3.50778 -5.35086,4.54263 -7.19653,4.54263 -0.82404,0 -1.49324,0.65164 -2.05849,2.00448 -0.97364,2.33026 -2.76542,3.73768 -5.80446,4.55934 -1.34365,0.36327 -2.76498,1.37288 -3.74901,2.66302 -1.89229,2.48091 -4.25322,3.80059 -8.65042,4.8353 -2.60318,0.61256 -3.65507,1.24272 -5.22074,3.12757 -2.12204,2.55466 -3.76383,3.27267 -9.5601,4.18097 -3.19948,0.50137 -4.0929,0.92982 -5.96817,2.86216 -2.54359,2.621 -4.8352,3.42446 -12.28118,4.30589 -8.45152,1.00047 -8.62636,1.06021 -8.62636,2.94715 v 1.64527 l -8.12551,0.38969 c -7.94051,0.38082 -67.96301,0.33998 -78.28685,-0.0533 z m 141.86371,-67.20138 c 1.24082,-1.21163 2.25604,-2.47053 2.25604,-2.79755 0,-0.32703 0.82105,-1.44171 1.82457,-2.47707 1.7093,-1.76356 1.86027,-2.29152 2.38969,-8.35723 1.76797,-20.2562 2.47423,-23.82456 5.31995,-26.87908 1.97306,-2.11783 2.51111,-11.22376 2.57326,-43.54973 0.0623,-32.41266 -0.21398,-36.07931 -2.87657,-38.17371 -1.97718,-1.55524 -3.80619,-5.17062 -4.24855,-8.39807 -0.40727,-2.97136 -1.06995,-3.95537 -3.50495,-5.20452 -0.97617,-0.50078 -2.30425,-1.89106 -2.95129,-3.0895 -1.15909,-2.14688 -3.00184,-3.43651 -4.91041,-3.43651 -1.52377,0 -5.61964,-2.16963 -7.71636,-4.08743 -1.34717,-1.23222 -2.7951,-1.86469 -4.94619,-2.16054 -1.67278,-0.23006 -3.19563,-0.2641 -3.38409,-0.0756 -0.18847,0.18847 0.12603,3.76316 0.69887,7.94378 2.57054,18.7598 1.54298,43.62638 -2.55676,61.87301 -0.3432,1.52748 -0.3182,2.77455 0.0695,3.46737 1.10332,1.97152 0.6499,13.80774 -0.70528,18.41069 -0.84663,2.87565 -1.42123,7.38646 -1.85667,14.57558 -1.45261,23.98239 -1.89039,26.6853 -4.83211,29.83442 -1.49492,1.60032 -1.94496,2.74431 -2.41558,6.14034 -0.40642,2.93274 -0.37925,4.8382 0.0914,6.40898 l 0.66973,2.23538 h 14.37789 14.37788 z M 124.04115,218.93114 v -73.77028 h -30.341003 -30.341 v 73.77028 73.77027 h 30.341 30.341003 z m 71.53634,16.50907 0.15171,-57.2612 4.75937,-0.74867 c 7.63134,-1.20045 24.06572,-1.14278 29.74608,0.10439 5.66737,1.24431 10.84855,3.64518 12.30327,5.70111 1.18968,1.68137 2.88073,13.35126 4.39662,30.341 1.81275,20.31691 1.73788,61.28824 -0.13942,76.2987 l -0.35342,2.82587 h 19.00549 19.00549 l 0.97362,-3.12334 c 1.80665,-5.79565 5.96673,-40.25336 7.6673,-63.50787 1.0232,-13.99158 1.02769,-44.29972 0.008,-52.31039 -0.99677,-7.82877 -3.11449,-16.23477 -5.05453,-20.06326 -4.8224,-9.51653 -16.91318,-13.60065 -42.34423,-14.30336 -12.79502,-0.35355 -28.29104,0.36902 -41.64451,1.94185 -3.92648,0.46248 -7.4737,0.8432 -7.88271,0.84605 -0.54309,0.004 -0.74365,-1.51904 -0.74365,-5.64659 v -5.65175 h -24.09432 -24.09433 v 80.90933 80.90933 h 24.09135 24.09135 l 0.15171,-57.2612 z M 102.02905,132.33616 c 13.55697,-3.18571 24.78517,-14.76219 27.66424,-28.52235 3.96409,-18.945904 -8.08391,-38.35224 -26.7785,-43.133511 -9.064627,-2.318338 -18.203943,-1.287345 -26.399523,2.978088 -5.911522,3.076684 -10.03227,6.748267 -13.658162,12.16943 -13.762622,20.576832 -3.910354,48.306413 19.836993,55.831983 1.636035,0.51846 3.643895,1.0547 4.461912,1.19163 3.536577,0.59201 11.306461,0.32282 14.87304,-0.51527 z"
       id="path4966"
       transform="matrix(0.26458333,0,0,0.26458333,39.266827,50.332928)" />
    <path
       style="fill:none;stroke-width:0.594922"
       d="m 62.764226,218.93114 v -74.3652 h 30.638461 30.638463 v 74.3652 74.36519 H 93.402687 62.764226 Z"
       id="path5005"
       transform="matrix(0.26458333,0,0,0.26458333,39.266827,50.332928)" />
    <path
       style="fill:#ffffff;fill-opacity:0;stroke-width:0.594922"
       d="m 62.764226,218.93114 v -74.3652 h 30.638461 30.638463 v 74.3652 74.36519 H 93.402687 62.764226 Z"
       id="path7608"
       transform="matrix(0.26458333,0,0,0.26458333,39.266827,50.332928)" />
    <path
       style="fill:#ffffff;fill-opacity:0;stroke-width:0.594922"
       d="m 62.764226,218.93114 v -74.3652 h 30.638461 30.638463 v 74.3652 74.36519 H 93.402687 62.764226 Z"
       id="path7980"
       transform="matrix(0.26458333,0,0,0.26458333,39.266827,50.332928)" />
    <path
       style="fill:#ffffff;fill-opacity:0;stroke-width:0.594922"
       d="M 85.668706,132.92079 C 71.758052,129.84525 60.681172,118.9231 57.061945,104.71363 55.640894,99.13444 56.141788,89.730281 58.147362,84.335159 63.603131,69.658794 76.254923,60.00701 91.235576,59.092863 110.9491,57.889907 128.41178,72.596161 130.50233,92.161484 c 0.95934,8.978416 -1.08153,17.472646 -5.94524,24.744506 -4.91114,7.34276 -12.02009,12.68268 -20.32554,15.26763 -5.047795,1.57106 -13.328848,1.90437 -18.562844,0.74717 z"
       id="path8019"
       transform="matrix(0.26458333,0,0,0.26458333,39.266827,50.332928)" />
  </g>
  <g
     inkscape:groupmode="layer"
     id="layer3"
     inkscape:label="Layer 3"
     style="display:inline" />
</svg>
